<svg width="25" height="24" viewBox="0 0 25 24" fill="none" xmlns="http://www.w3.org/2000/svg">
<path d="M10.3916 15.9038L9.57837 18.75L8.76517 15.9038C8.33805 14.4089 7.16949 13.2403 5.67456 12.8132L2.82837 12L5.67456 11.1868C7.16949 10.7597 8.33805 9.59112 8.76517 8.09619L9.57837 5.25L10.3916 8.09619C10.8187 9.59113 11.9872 10.7597 13.4822 11.1868L16.3284 12L13.4822 12.8132C11.9872 13.2403 10.8187 14.4089 10.3916 15.9038Z" stroke="#0F172A" stroke-width="1.5" stroke-linecap="round" stroke-linejoin="round"/>
<path d="M18.8372 8.71454L18.5784 9.75L18.3195 8.71454C18.0172 7.50533 17.073 6.56117 15.8638 6.25887L14.8284 6L15.8638 5.74113C17.073 5.43883 18.0172 4.49467 18.3195 3.28546L18.5784 2.25L18.8372 3.28546C19.1395 4.49467 20.0837 5.43883 21.2929 5.74113L22.3284 6L21.2929 6.25887C20.0837 6.56117 19.1395 7.50532 18.8372 8.71454Z" stroke="#0F172A" stroke-width="1.5" stroke-linecap="round" stroke-linejoin="round"/>
<path d="M17.4726 20.5673L17.0784 21.75L16.6841 20.5673C16.4602 19.8954 15.933 19.3682 15.2611 19.1442L14.0784 18.75L15.2611 18.3558C15.933 18.1318 16.4602 17.6046 16.6841 16.9327L17.0784 15.75L17.4726 16.9327C17.6966 17.6046 18.2238 18.1318 18.8956 18.3558L20.0784 18.75L18.8956 19.1442C18.2238 19.3682 17.6966 19.8954 17.4726 20.5673Z" stroke="#0F172A" stroke-width="1.5" stroke-linecap="round" stroke-linejoin="round"/>
</svg>
