<svg width="10" height="10" viewBox="0 0 20 20" fill="#EEEEEE" xmlns="http://www.w3.org/2000/svg">
<path fill-rule="evenodd" clip-rule="evenodd" d="M10 3.00001C8.93157 3.00024 7.87736 3.24505 6.91816 3.71568C5.95896 4.1863 5.12023 4.87025 4.46621 5.71513C3.81219 6.56 3.36026 7.54338 3.14503 8.58991C2.9298 9.63644 2.95699 10.7184 3.22451 11.7527C3.49204 12.7871 3.9928 13.7466 4.68843 14.5575C5.38406 15.3685 6.2561 16.0094 7.23773 16.4313C8.21936 16.8531 9.28453 17.0447 10.3516 16.9913C11.4187 16.9378 12.4594 16.6408 13.394 16.123C13.559 16.0313 13.7526 16.0053 13.936 16.05L16.73 16.73L16.05 13.936C16.0052 13.7526 16.0313 13.5591 16.123 13.394C16.7138 12.3283 17.0162 11.1269 17.0002 9.90846C16.9843 8.69006 16.6506 7.49692 16.0321 6.44704C15.4137 5.39716 14.5318 4.52691 13.4739 3.92235C12.4159 3.31779 11.2185 2.99986 10 3.00001ZM1.5 10C1.50044 8.71526 1.79211 7.44732 2.35308 6.29151C2.91405 5.1357 3.72973 4.12209 4.7388 3.32687C5.74786 2.53166 6.92406 1.97553 8.17899 1.70028C9.43391 1.42504 10.7349 1.43785 11.9842 1.73775C13.2334 2.03765 14.3984 2.61684 15.3917 3.43177C16.3849 4.24671 17.1804 5.27618 17.7185 6.44282C18.2566 7.60945 18.5233 8.88288 18.4984 10.1674C18.4735 11.4519 18.1578 12.7141 17.575 13.859L18.479 17.573C18.5094 17.6981 18.5071 17.8288 18.4724 17.9528C18.4376 18.0767 18.3716 18.1896 18.2806 18.2806C18.1896 18.3716 18.0767 18.4376 17.9528 18.4724C17.8288 18.5072 17.6981 18.5094 17.573 18.479L13.859 17.575C12.5631 18.2353 11.1193 18.5521 9.66599 18.4949C8.21263 18.4378 6.79825 18.0086 5.55817 17.2486C4.31808 16.4885 3.29378 15.4229 2.58325 14.1538C1.87272 12.8847 1.49975 11.4545 1.5 10ZM6 8.25001C6 8.0511 6.07902 7.86033 6.21967 7.71968C6.36032 7.57903 6.55109 7.50001 6.75 7.50001H13.25C13.4489 7.50001 13.6397 7.57903 13.7803 7.71968C13.921 7.86033 14 8.0511 14 8.25001C14 8.44892 13.921 8.63969 13.7803 8.78034C13.6397 8.92099 13.4489 9.00001 13.25 9.00001H6.75C6.55109 9.00001 6.36032 8.92099 6.21967 8.78034C6.07902 8.63969 6 8.44892 6 8.25001ZM6.75 11C6.55109 11 6.36032 11.079 6.21967 11.2197C6.07902 11.3603 6 11.5511 6 11.75C6 11.9489 6.07902 12.1397 6.21967 12.2803C6.36032 12.421 6.55109 12.5 6.75 12.5H11.25C11.4489 12.5 11.6397 12.421 11.7803 12.2803C11.921 12.1397 12 11.9489 12 11.75C12 11.5511 11.921 11.3603 11.7803 11.2197C11.6397 11.079 11.4489 11 11.25 11H6.75Z" fill="#EEEEEE"/>
</svg>
